# AST/ASF file generated using VICON BodyLanguage
# -----------------------------------------------
:version 1.10
:name VICON
:units
  mass 1.0
  length 0.45
  angle deg
:documentation
   .ast/.asf automatically generated from VICON data using
   VICON BodyBuilder and BodyLanguage model FoxedUp or BRILLIANT.MOD
:root
   order TX TY TZ RX RY RZ
   axis XYZ
   position 0 0 0  
   orientation 0 0 0 
:bonedata
  begin
     id 1 
     name lhipjoint
     direction 0.734343 -0.627749 0.258209 
     length 2.5437 
     axis 0 0 0  XYZ
  end
  begin
     id 2 
     name lfemur
     direction 0.34202 -0.939693 0  
     length 6.7391  
     axis 0 0 20  XYZ
    dof rx ry rz
    limits (-160.0 20.0)
           (-70.0 70.0)
           (-60.0 70.0)
  end
  begin
     id 3 
     name ltibia
     direction 0.34202 -0.939693 0   
     length 7.21536   
     axis 0 0 20   XYZ
    dof rx
    limits (-10.0 170.0)
  end
  begin
     id 4 
     name lfoot
     direction 0.0489572 -0.134509 0.989702   
     length 1.61313   
     axis -90 7.62852e-016 20   XYZ
    dof rx rz
    limits (-45.0 90.0)
           (-70.0 20.0)
  end
  begin
     id 5 
     name ltoes
     direction 1.53451e-011 -4.21692e-011 1   
     length 0.823104   
     axis -90 7.62852e-016 20   XYZ
    dof rx
    limits (-90.0 20.0)
  end
  begin
     id 6 
     name rhipjoint
     direction -0.746398 -0.615468 0.253157   
     length 2.59446  
     axis 0 0 0  XYZ 
  end
  begin
     id 7 
     name rfemur
     direction -0.34202 -0.939693 0   
     length 6.7075   
     axis 0 0 -20   XYZ
    dof rx ry rz
    limits (-160.0 20.0)
           (-70.0 70.0)
           (-70.0 60.0)
  end
  begin
     id 8 
     name rtibia
     direction -0.34202 -0.939693 0   
     length 7.27262   
     axis 0 0 -20   XYZ
    dof rx
    limits (-10.0 170.0)
 end
 begin
     id 9 
     name rfoot
     direction -0.0455203 -0.125066 0.991104   
     length 1.91095  
     axis -90 -7.62852e-016 -20   XYZ
    dof rx rz
    limits (-45.0 90.0)
           (-20.0 70.0)
  end
  begin
     id 10 
     name rtoes
     direction -1.53601e-011 -4.21913e-011 1   
     length 0.969037   
     axis -90 -7.62852e-016 -20   XYZ
    dof rx
    limits (-90.0 20.0)
  end
  begin
     id 11 
     name lowerback
     direction 0.0181546 0.999122 -0.0377542   
     length 1.99916   
     axis 0 0 0   XYZ
    dof rx ry rz
    limits (-20.0 45.0)
           (-30.0 30.0)
           (-30.0 30.0)
  end
  begin
     id 12 
     name upperback
     direction 0.0203486 0.99589 0.0882534   
     length 1.951   
     axis 0 0 0   XYZ
    dof rx ry rz
    limits (-20.0 45.0)
           (-30.0 30.0)
           (-30.0 30.0)
  end
  begin
     id 13 
     name thorax
     direction 0.0131685 0.994241 0.106355   
     length 1.97461   
     axis 0 0 0   XYZ
    dof rx ry rz
    limits (-20.0 45.0)
           (-30.0 30.0)
           (-30.0 30.0)
  end
  begin
     id 14 
     name lowerneck
     direction -0.0281395 0.999325 0.023617   
     length 1.7959   
     axis 0 0 0   XYZ
    dof rx ry rz
    limits (-20.0 45.0)
           (-30.0 30.0)
           (-30.0 30.0)
  end
  begin
     id 15 
     name upperneck
     direction 0.0288721 0.991984 -0.123019   
     length 1.79917   
     axis 0 0 0   XYZ
    dof rx ry rz
    limits (-20.0 45.0)
           (-30.0 30.0)
           (-30.0 30.0)
  end
  begin
     id 16
     name head
     direction 0.0133797 0.998944 -0.0439492  
     length 1.80902  
     axis 0 0 0   XYZ
    dof rx ry rz
    limits (-20.0 45.0)
           (-30.0 30.0)
           (-30.0 30.0)
  end
  begin
     id 17 
     name lclavicle
     direction 0.919195 0.377107 0.113449  
     length 3.17815  
     axis 0 0 0   XYZ
    dof ry rz
    limits (-20.0 10.0)
           (0.0 20.0)
  end
  begin
     id 18 
     name lhumerus
     direction 1 -4.48959e-011 2.13129e-027   
     length 4.84137   
     axis 180 -30 -90   XYZ
    dof rx ry rz
    limits (-60.0 90.0)
           (-90.0 90.0)
           (-90.0 90.0)
  end
  begin
     id 19
     name lradius
     direction 1 -4.48957e-011 -6.30627e-028   
     length 3.2452   
     axis 180 -30 -90   XYZ
    dof rx
    limits (-10.0 170.0)
  end
  begin
     id 20
     name lwrist
     direction 1 -4.4901e-011 9.13299e-027   
     length 1.6226   
     axis -6.84618e-015 90 90   XYZ
    dof ry
    limits (-180.0 0.0)
 end
  begin
     id 21 
     name lhand
     direction 1 -4.48816e-011 1.82293e-026   
     length 0.521221   
     axis -1.16502e-014 90 90   XYZ
    dof rx rz
    limits (-90.0 90.0)
           (-45.0 45.0)
  end
  begin
     id 22 
     name lfingers
     direction 1 -4.49108e-011 3.65687e-026   
     length 0.420221   
     axis -2.33008e-014 90 90   XYZ
    dof rx
    limits (0.0 90.0)
  end
  begin
     id 23
     name lthumb
     direction 0.707107 -6.34943e-011 0.707107   
     length 0.603356   
     axis -90 45 5.69224e-014   XYZ
    dof rx rz
    limits (-45.0 45.0)
           (-45.0 45.0)
  end
  begin
     id 24 
     name rclavicle
     direction -0.90847 0.38596 0.160368   
     length 3.12973  
     axis 0 0 0   XYZ 
    dof ry rz
    limits (-10.0 20.0)
           (-20.0 0.0)
  end
  begin
     id 25 
     name rhumerus
     direction -1 -4.48974e-011 4.47268e-028  
     length 4.72284   
     axis 180 30 90   XYZ
    dof rx ry rz
    limits (-90.0 60.0)
           (-90.0 90.0)
           (-90.0 90.0)
  end
  begin
     id 26 
     name rradius
     direction -1 -4.48969e-011 3.43203e-027   
     length 3.23459   
     axis 180 30 90   XYZ
    dof rx
    limits (-10.0 170.0)
  end
  begin
     id 27 
     name rwrist
     direction -1 -4.48969e-011 9.12911e-027   
     length 1.6173   
     axis -6.84618e-015 -90 -90   XYZ
    dof ry
    limits (-180.0 0.0)
  end
  begin
     id 28
     name rhand
     direction -1 -4.49194e-011 1.83006e-026   
     length 0.307416   
     axis -1.16502e-014 -90 -90   XYZ
    dof rx rz
    limits (-90.0 90.0)
           (-45.0 45.0)
  end
  begin
     id 29
     name rfingers
     direction -1 -4.48423e-011 3.63103e-026   
     length 0.247847   
     axis -2.33008e-014 -90 -90   XYZ
    dof rx
    limits (0.0 90.0)
  end
  begin
     id 30
     name rthumb
     direction -0.707107 -6.34802e-011 0.707107   
     length 0.35586   
     axis -90 -45 -5.69224e-014   XYZ
    dof rx rz
    limits (-45.0 45.0)
           (-45.0 45.0)
  end
:hierarchy
  begin
    root lhipjoint rhipjoint lowerback
    lhipjoint lfemur
    lfemur ltibia
    ltibia lfoot
    lfoot ltoes
    rhipjoint rfemur
    rfemur rtibia
    rtibia rfoot
    rfoot rtoes
    lowerback upperback
    upperback thorax
    thorax lowerneck lclavicle rclavicle
    lowerneck upperneck
    upperneck head
    lclavicle lhumerus
    lhumerus lradius
    lradius lwrist
    lwrist lhand lthumb
    lhand lfingers
    rclavicle rhumerus
    rhumerus rradius
    rradius rwrist
    rwrist rhand rthumb
    rhand rfingers
  end

#!OML:ASF H:\Terrain\Patient Classification 1\Animal1\Tuesday\Animal1.ASF
:FULLY-SPECIFIED
:DEGREES
865
root 13.9464 16.5434 -12.5342 8.44834 -24.3765 1.66119
lowerback -5.40345 -0.0445605 1.71793
upperback -9.83471 -0.144894 0.677298
thorax -7.26081 -0.214531 -0.241442
lowerneck -2.40181 0.388111 -6.15515
upperneck 19.0185 -0.658855 9.18523
head 6.1444 -0.131934 3.93539
rclavicle 4.1546e-014 2.10712e-014
rhumerus 2.00853 -1.37607 4.18871
rradius 23.3882
rwrist -24.3178
rhand -3.50088 1.24177
rfingers 7.12502
rthumb 22.2332 -27.4994
lclavicle 4.1546e-014 2.10712e-014
lhumerus -1.94777 21.0001 10.1139
lradius 21.6759
lwrist -29.3039
lhand 1.65147 42.5854
lfingers 7.12502
lthumb 27.1712 70.6492
rfemur -20.9692 30.7418 15.0382
rtibia 22.662
rfoot -21.1635 -37.628
rtoes 25.299
lfemur -13.2331 -30.8861 -23.0701
ltibia 17.9515
lfoot -12.7453 25.4292
ltoes 6.78033
866
root 13.9538 16.5435 -12.5345 8.40117 -24.5007 1.62522
lowerback -5.33569 -0.00903443 1.69832
upperback -9.78129 -0.0942424 0.698999
thorax -7.23982 -0.186114 -0.208461
lowerneck -2.42741 0.359627 -6.10798
upperneck 19.0225 -0.673768 9.02881
head 6.15239 -0.146381 3.87574
rclavicle -1.08338e-014 -8.34896e-015
rhumerus 2.10212 -1.5865 4.12467
rradius 23.4207
rwrist -24.1586
rhand -4.08888 1.14501
rfingers 7.12502
rthumb 21.6686 -27.6624
lclavicle -1.08338e-014 -8.34896e-015
lhumerus -1.98826 20.3091 9.98136
lradius 21.7054
lwrist -28.5939
lhand 1.12482 42.5412
lfingers 7.12502
lthumb 26.6673 70.6827
rfemur -20.842 30.7648 15.0604
rtibia 22.4598
rfoot -21.4862 -37.3513
rtoes 26.5143
lfemur -13.2902 -30.7321 -23.1144
ltibia 18.2207
lfoot -12.8485 25.444
ltoes 6.56426
867
root 13.9618 16.5419 -12.5349 8.47191 -24.6655 1.4059
lowerback -5.33538 0.0966755 1.91128
upperback -9.70581 0.0446768 0.675306
thorax -7.15584 -0.131623 -0.354091
lowerneck -2.64349 0.285288 -6.12707
upperneck 18.9884 -0.773439 9.09999
head 6.18753 -0.185714 3.89706
rclavicle 1.28216e-014 -6.75868e-015
rhumerus 1.95084 -1.30598 4.20383
rradius 23.5422
rwrist -24.468
rhand -4.3597 0.759395
rfingers 7.12502
rthumb 21.4085 -28.0778
lclavicle 1.28216e-014 -6.75868e-015
lhumerus -1.61905 21.1035 10.1528
lradius 21.6047
lwrist -29.3081
lhand 0.627727 43.1623
lfingers 7.12502
lthumb 26.1915 71.3753
rfemur -20.7553 30.7268 15.2406
rtibia 22.2001
rfoot -21.5003 -37.0589
rtoes 27.8327
lfemur -13.434 -30.7565 -22.9281
ltibia 18.5387
lfoot -13.2336 25.5528
ltoes 7.93086
868
root 13.9704 16.541 -12.5337 8.6025 -24.8325 1.14252
lowerback -5.39304 0.194187 2.18664
upperback -9.67072 0.169634 0.647916
thorax -7.08274 -0.0891642 -0.537785
lowerneck -2.86065 0.269971 -6.16219
upperneck 18.9924 -0.817212 9.309
head 6.22967 -0.188869 3.9701
rclavicle -1.20265e-014 -1.78906e-014
rhumerus 1.7843 -0.969378 4.2634
rradius 23.6448
rwrist -24.8691
rhand -4.29231 0.633823
rfingers 7.12502
rthumb 21.4732 -28.196
lclavicle -1.20265e-014 -1.78906e-014
lhumerus -1.26938 22.2241 10.3213
lradius 21.4347
lwrist -30.3908
lhand 1.29247 43.1048
lfingers 7.12502
lthumb 26.8277 71.2218
rfemur -20.6876 30.5528 15.4868
rtibia 21.9179
rfoot -20.3747 -37.1195
rtoes 26.1934
lfemur -13.6317 -30.7483 -22.6854
ltibia 18.8696
lfoot -13.6111 25.6631
ltoes 8.87393
869
root 13.9776 16.5414 -12.5301 8.74048 -24.9468 0.804809
lowerback -5.46415 0.227506 2.51883
upperback -9.65812 0.210652 0.692872
thorax -7.02883 -0.0899057 -0.676316
lowerneck -2.91675 0.310476 -6.11056
upperneck 19.0892 -0.774992 9.33341
head 6.26636 -0.1614 3.97416
rclavicle -5.83433e-014 1.59028e-015
rhumerus 1.80444 -1.0297 4.16065
rradius 23.6891
rwrist -24.9291
rhand -4.42028 0.660966
rfingers 7.12502
rthumb 21.3503 -28.1828
lclavicle -5.83433e-014 1.59028e-015
lhumerus -1.25577 22.4104 10.2082
lradius 21.3709
lwrist -30.5714
lhand 2.49343 42.6356
lfingers 7.12502
lthumb 27.9764 70.5708
rfemur -20.5486 30.3913 15.8435
rtibia 21.6505
rfoot -19.3876 -37.0764
rtoes 25.3431
lfemur -13.7621 -30.6745 -22.403
ltibia 19.1893
lfoot -13.8578 25.7657
ltoes 8.33802
